<svg width="20" height="20" viewBox="0 0 20 20" fill="none" xmlns="http://www.w3.org/2000/svg">
<path d="M11.0417 3.33366C11.0417 2.75836 10.5753 2.29199 10 2.29199C9.42472 2.29199 8.95835 2.75836 8.95835 3.33366V8.95866H3.33335C2.75806 8.95866 2.29169 9.42503 2.29169 10.0003C2.29169 10.5756 2.75806 11.042 3.33335 11.042H8.95835V16.667C8.95835 17.2423 9.42472 17.7087 10 17.7087C10.5753 17.7087 11.0417 17.2423 11.0417 16.667V11.042H16.6667C17.242 11.042 17.7084 10.5756 17.7084 10.0003C17.7084 9.42503 17.242 8.95866 16.6667 8.95866H11.0417V3.33366Z" fill="white" fill-opacity="0.87"/>
</svg>
